<svg width="737" height="754" viewBox="0 0 737 754" fill="none" xmlns="http://www.w3.org/2000/svg">
<path d="M238.001 87.0001L87 217.5C79.0004 227.1 51 244.5 30.0006 250C-5.59941 249.2 -5 215.5 10.5006 204C40.9006 188 42.5005 180 39.5005 178C24.8339 123.333 6.30053 11.5001 49.5005 1.50009C92.7005 -8.49991 193.167 54.3334 238.001 87.0001Z" fill="#FEFEFE"/>
<path d="M499 86.5658L650 217.066C658 226.666 686 244.066 707 249.566C742.6 248.766 742 215.066 726.5 203.566C696.1 187.566 694.5 179.566 697.5 177.566C712.167 122.899 730.7 11.0658 687.5 1.06576C644.3 -8.93424 543.833 53.8991 499 86.5658Z" fill="#FEFEFE"/>
<path d="M165.499 98.0001C165.499 83.5 84.9995 48.0001 74.4995 58.0001C60.4998 63.5 67.3995 153.3 84.9995 172.5C86.8329 174.833 95.9 171.8 111.5 149L116 156.5L147.5 126L136 114L139 113.5C161.8 108.3 165.833 101.167 165.499 98.0001Z" fill="black"/>
<path d="M570.018 97.7494C570.018 83.2493 650.518 47.7493 661.018 57.7493C675.018 63.2493 668.118 153.049 650.518 172.249C648.685 174.583 639.618 171.549 624.018 148.749L619.518 156.249L588.018 125.749L599.518 113.749L596.518 113.249C573.718 108.049 569.685 100.916 570.018 97.7494Z" fill="black"/>
<path d="M671.995 280C691.495 392.5 537.503 490 373.001 496.5C243.103 501.632 55.5 417 63.4996 296.5C59.4995 181.5 201.496 56.9998 369.996 65.9997C536.786 65.9997 661.995 164.5 671.995 280Z" fill="#F54C39"/>
<path d="M622 153C592.8 133.8 593.167 121 597 117C590.333 117 574.3 122.5 563.5 144.5C552.7 166.5 597.5 192.667 620 188.5L631 180.5L622 164.5V153Z" fill="#F54C39"/>
<path d="M113.999 153C143.199 133.8 142.833 121 138.999 117C145.666 117 163.7 121 174.5 143C185.3 165 140 197.667 117.5 193.5L93 199L113.999 163V153Z" fill="#F54C39"/>
<circle cx="464.078" cy="311.931" r="23.0103" transform="rotate(0.168978 464.078 311.931)" fill="#1B181C"/>
<circle cx="270.078" cy="312.078" r="23.0103" transform="rotate(0.168978 270.078 312.078)" fill="#1B181C"/>
<path d="M543.502 319.5C543.502 319.5 567.506 328.5 587.502 360C607.499 391.5 592.927 427.013 592.927 427.013C592.927 427.013 580.615 435.491 569.334 442.147C558.053 448.803 538.646 457.753 538.646 457.753C538.646 457.753 562.502 419 549.502 391.5C536.503 364 515.497 355.5 511.999 347C508.5 338.5 508.999 332 518.002 323.5C527.006 315 543.502 319.5 543.502 319.5Z" fill="#FEFEFE"/>
<path d="M192.578 320.19C192.578 320.19 168.574 329.19 148.578 360.69C128.581 392.19 142.135 427.886 142.135 427.886C142.135 427.886 157.267 437.916 167.03 443.676C176.793 449.436 198.319 459.369 198.319 459.369C198.319 459.369 173.578 419.69 186.578 392.19C199.577 364.69 220.583 356.19 224.081 347.69C227.58 339.19 227.081 332.69 218.078 324.19C209.074 315.69 192.578 320.19 192.578 320.19Z" fill="#FEFEFE"/>
<path d="M90 431C90 431 157.021 483.992 230.347 507.208C303.673 530.423 363 530.5 363 530.5C363 530.5 340.5 562 345.5 639C350.5 716 375.492 754 375.492 754H186.5C186.5 754 41.0083 732.456 41 629.5C40.9917 526.544 90 431 90 431Z" fill="#F54C39"/>
<path d="M403 531.5C403 531.5 421 530.216 440.999 526C454.623 523.128 478.5 516 478.5 516C478.5 516 450.169 580.5 459.999 642C469.589 702 512.5 753 512.5 753L419.5 754C419.5 754 389.174 705 384.499 647C379.058 579.5 403 531.5 403 531.5Z" fill="#F54C39"/>
<path d="M528.5 499.5C528.5 499.5 550 487.5 561.5 485C576.922 481.647 593.005 486 593.005 486C593.005 486 557.81 537 571.505 617.5C583.074 685.5 628.505 728 628.505 728C628.505 728 619.994 734.4 597.5 742.5C575.005 750.599 563 751.5 563 751.5C563 751.5 513.762 707 500.004 626.5C490.629 571.651 528.5 499.5 528.5 499.5Z" fill="#F54C39"/>
<path d="M630.493 499.5C630.493 499.5 689.493 527 696.493 600.5C701.874 657 659.993 700.5 659.993 700.5C659.993 700.5 616.78 670.56 610.498 608.5C602.5 529.5 630.493 499.5 630.493 499.5Z" fill="#F54C39"/>
<path d="M421.496 263.502C421.49 247.432 464.5 214.873 487.495 229.002C501.478 237.594 502.5 259.302 490 262.5C468.504 267.999 468.999 263.502 445.498 281C432.999 290.307 421.499 271 421.496 263.502Z" fill="#FEFEFE"/>
<path d="M314.386 262.769C314.392 246.699 271.382 214.14 248.386 228.269C234.403 236.861 233.382 258.569 245.882 261.767C267.378 267.266 266.883 262.769 290.384 280.268C302.883 289.575 314.383 270.267 314.386 262.769Z" fill="#F9FDFD"/>
<path d="M480.004 436.5C486.004 390.5 400.999 325 367.498 327C354.999 328.5 314.529 338.547 266.5 399.5C240.498 432.5 266.494 481.888 305.5 490.5C323.06 494.377 345.999 497 370.999 496.5C388.252 496.233 423.789 491.772 430.999 490.5C438.21 489.228 474.656 477.5 480.004 436.5Z" fill="#FEFEFE"/>
<path d="M401 402C393 425 368.5 423 368.5 423C368.5 423 341.5 426.5 334.5 402C332 392 338.386 378.5 366 378.5C395 380.5 403.5 388.5 401 402Z" fill="#1B181C"/>
<path d="M356.501 422C348.901 449.6 327.001 440.833 317.001 433C311.5 430 302 434.482 308.501 443C318.168 455.667 343.501 472.8 367.501 440C388.701 469.6 414.668 456.333 425.001 446C433.001 431.6 423.084 429 418.001 433C393.601 452.2 381.168 433 378.001 421L356.501 422Z" fill="#1B181C"/>
</svg>
